<?xml version="1.0" encoding="utf-8"?>
<svg version="1.1" id="Logo" xmlns="http://www.w3.org/2000/svg" xmlns:xlink="http://www.w3.org/1999/xlink" x="0px" y="0px"
	 viewBox="0 0 532.9 532.9" style="enable-background:new 0 0 532.9 532.9;" xml:space="preserve">
<path fill="currentColor" d="M221,490.6v-63.8h68.8v63.8H221z M227.9,366v-39.1c0-53.8,37.4-72.4,62.1-84.8c29.3-14.7,53.6-30.4,53.6-74.9
	c0-19.3-8.6-38.6-23.7-52.9c-15.7-14.9-36.8-23.1-59.2-23.1c-19.6,0-38.9,6.7-54.4,18.8c-15.4,12.1-26,28.7-29.9,46.9l-0.4,2
	l-53-11.6l0.5-2c14.9-61.6,71.3-104.7,137.2-104.7c36.9,0,71.3,13.2,97,37.2c25.9,24.2,40.2,56.8,40.2,91.9
	c0,29.1-7.4,53.7-21.9,73.2c-11.6,15.5-27.8,28.1-49.6,38.7c-29.4,15-44.8,24.1-44.8,49.1V366H227.9z"/>
</svg>
