<?xml version="1.0" encoding="utf-8"?>
<!-- Generator: Adobe Illustrator 27.3.1, SVG Export Plug-In . SVG Version: 6.00 Build 0)  -->
<svg version="1.1" id="Logo" xmlns="http://www.w3.org/2000/svg" xmlns:xlink="http://www.w3.org/1999/xlink" x="0px" y="0px" viewBox="0 0 532.9 532.9" style="enable-background:new 0 0 532.9 532.9;" xml:space="preserve">
  <style type="text/css">
    .st0 {
      display: none;
      enable-background: new;
    }

    .st1 {
      font-family: 'strokeWeight-100';
    }

    .st2 {
      font-size: 550px;
    }

    .st3 {
      display: none;
    }

    .st4 {
      display: inline;
    }

    .st5 {
      fill: none;
      stroke: currentColor;
      stroke-width: 52;
      stroke-miterlimit: 10;
    }

    .st6 {
      display: none;
      fill: none;
      stroke: #181715;
      stroke-width: 55;
      stroke-miterlimit: 10;
    }

    .st7 {
      display: none;
      fill: none;
      stroke: #181715;
      stroke-width: 48;
      stroke-miterlimit: 10;
    }
  </style>
  <text transform="matrix(1 0 0 1 87.15 419.9976)" class="st0 st1 st2">↓</text>
  <text transform="matrix(1.5 0 0 1 60.1997 421.9976)" class="st0 st1 st2">_</text>
  <g class="st3">
    <path class="st4" d="M103.6,194.8L266.5,32l162.8,162.8l-33,35.2L290.7,123.8v298.7h-48.4V123.8L136.7,230L103.6,194.8z" />
  </g>
  <polyline class="st5" points="389.4,16.9 424.3,181.5 259.7,216.4 " />
  <path class="st6" d="M266.5,123.3c97.2,0,175.9,78.8,175.9,175.9" />
  <circle class="st7" cx="268.9" cy="292.4" r="175.5" />
  <path class="st5" d="M455.1,295.6c0,101.7-82.5,184.2-184.2,184.2S86.7,397.3,86.7,295.6s82.5-184.2,184.2-184.2" />
  <path class="st5" d="M270.9,111.4c48.4,0,92.5,18.7,125.3,49.2" />
</svg>